<svg xmlns="http://www.w3.org/2000/svg" viewBox="0 0 540 360" width="540" height="360">
<rect width="540" height="360" fill="#ffffff" stroke="#cbd5e1" stroke-width="1" rx="8"/>
<text x="270.0" y="34" text-anchor="middle" font-family="Arial, sans-serif" font-size="14" font-weight="bold" fill="#0f172a">Solar Panel Tilt Angle vs. Power Output at Solar Noon</text>
<line x1="75" y1="295.0" x2="500" y2="295.0" stroke="#e2e8f0" stroke-width="1" stroke-dasharray="3,3"/>
<text x="67" y="299.0" text-anchor="end" font-family="Arial, sans-serif" font-size="11" fill="#64748b">0</text>
<line x1="75" y1="247.0" x2="500" y2="247.0" stroke="#e2e8f0" stroke-width="1" stroke-dasharray="3,3"/>
<text x="67" y="251.0" text-anchor="end" font-family="Arial, sans-serif" font-size="11" fill="#64748b">10</text>
<line x1="75" y1="199.0" x2="500" y2="199.0" stroke="#e2e8f0" stroke-width="1" stroke-dasharray="3,3"/>
<text x="67" y="203.0" text-anchor="end" font-family="Arial, sans-serif" font-size="11" fill="#64748b">20</text>
<line x1="75" y1="151.0" x2="500" y2="151.0" stroke="#e2e8f0" stroke-width="1" stroke-dasharray="3,3"/>
<text x="67" y="155.0" text-anchor="end" font-family="Arial, sans-serif" font-size="11" fill="#64748b">30</text>
<line x1="75" y1="103.0" x2="500" y2="103.0" stroke="#e2e8f0" stroke-width="1" stroke-dasharray="3,3"/>
<text x="67" y="107.0" text-anchor="end" font-family="Arial, sans-serif" font-size="11" fill="#64748b">40</text>
<line x1="75" y1="55.0" x2="500" y2="55.0" stroke="#e2e8f0" stroke-width="1" stroke-dasharray="3,3"/>
<text x="67" y="59.0" text-anchor="end" font-family="Arial, sans-serif" font-size="11" fill="#64748b">50</text>
<line x1="75.0" y1="55" x2="75.0" y2="295" stroke="#f1f5f9" stroke-width="1"/>
<line x1="75.0" y1="295" x2="75.0" y2="300" stroke="#94a3b8" stroke-width="1"/>
<text x="75.0" y="313" text-anchor="middle" font-family="Arial, sans-serif" font-size="11" fill="#64748b">0</text>
<line x1="145.8" y1="55" x2="145.8" y2="295" stroke="#f1f5f9" stroke-width="1"/>
<line x1="145.8" y1="295" x2="145.8" y2="300" stroke="#94a3b8" stroke-width="1"/>
<text x="145.8" y="313" text-anchor="middle" font-family="Arial, sans-serif" font-size="11" fill="#64748b">15</text>
<line x1="216.7" y1="55" x2="216.7" y2="295" stroke="#f1f5f9" stroke-width="1"/>
<line x1="216.7" y1="295" x2="216.7" y2="300" stroke="#94a3b8" stroke-width="1"/>
<text x="216.7" y="313" text-anchor="middle" font-family="Arial, sans-serif" font-size="11" fill="#64748b">30</text>
<line x1="287.5" y1="55" x2="287.5" y2="295" stroke="#f1f5f9" stroke-width="1"/>
<line x1="287.5" y1="295" x2="287.5" y2="300" stroke="#94a3b8" stroke-width="1"/>
<text x="287.5" y="313" text-anchor="middle" font-family="Arial, sans-serif" font-size="11" fill="#64748b">45</text>
<line x1="358.3" y1="55" x2="358.3" y2="295" stroke="#f1f5f9" stroke-width="1"/>
<line x1="358.3" y1="295" x2="358.3" y2="300" stroke="#94a3b8" stroke-width="1"/>
<text x="358.3" y="313" text-anchor="middle" font-family="Arial, sans-serif" font-size="11" fill="#64748b">60</text>
<line x1="429.2" y1="55" x2="429.2" y2="295" stroke="#f1f5f9" stroke-width="1"/>
<line x1="429.2" y1="295" x2="429.2" y2="300" stroke="#94a3b8" stroke-width="1"/>
<text x="429.2" y="313" text-anchor="middle" font-family="Arial, sans-serif" font-size="11" fill="#64748b">75</text>
<line x1="500.0" y1="55" x2="500.0" y2="295" stroke="#f1f5f9" stroke-width="1"/>
<line x1="500.0" y1="295" x2="500.0" y2="300" stroke="#94a3b8" stroke-width="1"/>
<text x="500.0" y="313" text-anchor="middle" font-family="Arial, sans-serif" font-size="11" fill="#64748b">90</text>
<line x1="75" y1="55" x2="75" y2="295" stroke="#475569" stroke-width="1.5"/>
<line x1="75" y1="295" x2="500" y2="295" stroke="#475569" stroke-width="1.5"/>
<text x="287.5" y="337" text-anchor="middle" font-family="Arial, sans-serif" font-size="12" font-weight="bold" fill="#334155">Panel Angle relative to Ground (degrees)</text>
<text x="-175.0" y="24" transform="rotate(-90)" text-anchor="middle" font-family="Arial, sans-serif" font-size="12" font-weight="bold" fill="#334155">Power Output (Watts)</text>
<polyline points="75.0,208.6 145.8,146.2 216.7,83.8 287.5,74.2 358.3,112.6 429.2,179.8 500.0,251.8" fill="none" stroke="#f39c12" stroke-width="3" stroke-linejoin="round" stroke-linecap="round"/>
<circle cx="75.0" cy="208.6" r="4.5" fill="#f39c12" stroke="#ffffff" stroke-width="2"/>
<text x="75.0" y="200.6" text-anchor="middle" font-family="Arial, sans-serif" font-size="11" font-weight="bold" fill="#f39c12">18</text>
<circle cx="145.8" cy="146.2" r="4.5" fill="#f39c12" stroke="#ffffff" stroke-width="2"/>
<text x="145.8" y="138.2" text-anchor="middle" font-family="Arial, sans-serif" font-size="11" font-weight="bold" fill="#f39c12">31</text>
<circle cx="216.7" cy="83.8" r="4.5" fill="#f39c12" stroke="#ffffff" stroke-width="2"/>
<text x="216.7" y="75.8" text-anchor="middle" font-family="Arial, sans-serif" font-size="11" font-weight="bold" fill="#f39c12">44</text>
<circle cx="287.5" cy="74.2" r="4.5" fill="#f39c12" stroke="#ffffff" stroke-width="2"/>
<text x="287.5" y="66.2" text-anchor="middle" font-family="Arial, sans-serif" font-size="11" font-weight="bold" fill="#f39c12">46</text>
<circle cx="358.3" cy="112.6" r="4.5" fill="#f39c12" stroke="#ffffff" stroke-width="2"/>
<text x="358.3" y="104.6" text-anchor="middle" font-family="Arial, sans-serif" font-size="11" font-weight="bold" fill="#f39c12">38</text>
<circle cx="429.2" cy="179.8" r="4.5" fill="#f39c12" stroke="#ffffff" stroke-width="2"/>
<text x="429.2" y="171.8" text-anchor="middle" font-family="Arial, sans-serif" font-size="11" font-weight="bold" fill="#f39c12">24</text>
<circle cx="500.0" cy="251.8" r="4.5" fill="#f39c12" stroke="#ffffff" stroke-width="2"/>
<text x="500.0" y="243.8" text-anchor="middle" font-family="Arial, sans-serif" font-size="11" font-weight="bold" fill="#f39c12">9</text>
</svg>